<?xml version="1.0" encoding="utf-8"?>
<!-- Generator: Adobe Illustrator 26.0.3, SVG Export Plug-In . SVG Version: 6.00 Build 0)  -->
<svg version="1.0" id="katman_1" xmlns="http://www.w3.org/2000/svg" xmlns:xlink="http://www.w3.org/1999/xlink" x="0px" y="0px"
	 viewBox="0 0 600 450" style="enable-background:new 0 0 600 450;" xml:space="preserve">
<style type="text/css">
	.st0{fill:#F6A11F;}
	.st1{fill:#06BAE8;}
	.st2{fill:#73B955;}
	.st3{fill:#1289CA;}
	.st4{fill:#2D3841;}
</style>
<path class="st0" d="M101.5,196.1c0.3-5.2,4.8-9.6,10.3-9.3c1.7,0.3,3.4,0.3,6.2,2.4c12.7,11,20.3,31,18.2,47.8c-0.3,1-1,0.7-1.4,0
	c-3.4-12-15.1-26.2-25.8-30.3C103.9,204.7,101.1,200.9,101.5,196.1z"/>
<path class="st1" d="M192.3,195.1c0-7.9-6.5-14.8-15.8-14.5c-17.9,0.3-42.3,46.8-28.2,88.8c0.3,1,1,0.7,1-0.3
	c1.7-29.2,19.6-52.3,35.1-60.9C190.6,204.7,192.3,200.6,192.3,195.1z"/>
<path class="st2" d="M93.5,237.4c0.3,5.8,5.2,8.6,10,8.6c10.3,0,23.1,4.8,30.6,11c0.7,0.7,0.7,0.3,0.3-1
	c-3.1-10.7-19.6-28.6-31.3-28.6C97,227.8,93.2,232.9,93.5,237.4z"/>
<path class="st3" d="M204,237.4c-0.3,5.8-5.2,8.6-10,8.6c-10.3,0-23.1,4.8-30.6,11c-0.7,0.7-0.7,0.3-0.3-1
	c3.1-10.7,19.6-28.6,31.3-28.6C200.9,227.8,204.3,232.9,204,237.4z"/>
<path class="st4" d="M229.1,237.8c2.4,1.7,7.2,3.8,12,3.8c4.1,0,7.2-2.1,7.2-5.5c0-8.3-21.3-5.5-21.3-19.6c0-7.9,6.9-12,15.1-12
	c5.8,0,8.9,1.7,13.1,4.5l-3.4,5.2c-3.8-1.7-5.9-2.8-10-2.8s-7.2,1.7-7.2,5.2c0,8.3,21.3,5.2,21.3,19.6c0,7.2-5.9,12.4-15.1,12.4
	c-6.9,0-12-2.8-15.1-5.2L229.1,237.8z"/>
<path class="st4" d="M285.6,241.2c6.5,0,12-5.5,12-14.8c0-8.9-4.8-14.8-11.7-14.8c-6.2,0-12,4.5-12,15.1
	C273.5,234,278,241.2,285.6,241.2z M265.9,270.1v-64.7h7.2v4.8c0,1.4-0.3,2.1-0.3,2.1h0.3c0,0,3.8-7.9,14.1-7.9
	c11.4,0,18.2,8.9,18.2,21.7c0,13.4-7.9,21.7-18.9,21.7c-9.3,0-13.1-7.6-13.1-7.6h-0.3c0,0,0.3,1.4,0.3,3.8v25.5L265.9,270.1z"/>
<path class="st4" d="M337.9,213c-8.3,0-15.1,8.9-15.1,17.2v17.5h-7.9v-42.3h7.9v7.6c0,1.7-0.3,3.1-0.3,3.1h0.3
	c1.4-5.5,8.9-11,15.1-11V213z"/>
<path class="st4" d="M354,205.4h-7.9v42h7.9V205.4z"/>
<path class="st4" d="M395.3,247.4v-25.1c0-5.8-1-10.7-7.9-10.7c-7.9,0-14.1,6.9-14.1,15.5v20.3h-7.9v-42h7.9v6.2
	c0,1.4-0.3,2.4-0.3,2.4h0.3c1.7-3.8,6.9-10,15.8-10c10,0,14.5,5.5,14.5,15.8v26.8L395.3,247.4z"/>
<path class="st4" d="M442.5,247.4l-12.4-20h-6.2v20H416V183h7.9v37.9h5.9l11.7-15.1h8.3L436.3,224v0.3l14.8,23.4h-8.6V247.4z"/>
<path class="st4" d="M473.4,247.4c-6.5,0-14.1-1-14.1-11.7V183h7.9v52c0,5.2,4.1,5.2,5.9,5.5v6.9H473.4z"/>
<path class="st4" d="M506.5,212.6c-8.3,0-15.1,8.9-15.1,17.2v17.5h-7.9v-42h7.9v7.6c0,1.7-0.3,3.1-0.3,3.1h0.3
	c1.7-5.5,9.3-11,15.5-11L506.5,212.6z"/>
<path class="st4" d="M355.1,191.7c0,2.8-2.1,4.8-4.8,4.8c-2.8,0-4.8-2.1-4.8-4.8c0-2.8,2.1-4.8,4.8-4.8
	C353,186.8,355.1,188.9,355.1,191.7z"/>
</svg>
